<?xml version="1.0" encoding="UTF-8" standalone="no"?>
<!-- Created with Inkscape (http://www.inkscape.org/) -->

<svg
   xmlns:dc="http://purl.org/dc/elements/1.1/"
   xmlns:cc="http://creativecommons.org/ns#"
   xmlns:rdf="http://www.w3.org/1999/02/22-rdf-syntax-ns#"
   xmlns:svg="http://www.w3.org/2000/svg"
   xmlns="http://www.w3.org/2000/svg"
   xmlns:sodipodi="http://sodipodi.sourceforge.net/DTD/sodipodi-0.dtd"
   xmlns:inkscape="http://www.inkscape.org/namespaces/inkscape"
   width="692.09326"
   height="126.54019"
   id="svg3183"
   version="1.1"
   inkscape:version="0.48.4 r9939"
   sodipodi:docname="hsgbanner-flattened.svg">
  <sodipodi:namedview
     id="base"
     pagecolor="#ffffff"
     bordercolor="#666666"
     borderopacity="1.0"
     inkscape:pageopacity="0.0"
     inkscape:pageshadow="2"
     inkscape:zoom="2.8"
     inkscape:cx="652.50942"
     inkscape:cy="63.756135"
     inkscape:document-units="px"
     inkscape:current-layer="layer3"
     showgrid="false"
     inkscape:window-width="698"
     inkscape:window-height="492"
     inkscape:window-x="1605"
     inkscape:window-y="400"
     inkscape:window-maximized="0"
     fit-margin-top="0"
     fit-margin-left="0"
     fit-margin-right="0"
     fit-margin-bottom="0" />
  <defs
     id="defs3185" />
  <metadata
     id="metadata3188">
    <rdf:RDF>
      <cc:Work
         rdf:about="">
        <dc:format>image/svg+xml</dc:format>
        <dc:type
           rdf:resource="http://purl.org/dc/dcmitype/StillImage" />
        <dc:title></dc:title>
      </cc:Work>
    </rdf:RDF>
  </metadata>
  <g
     sodipodi:insensitive="true"
     inkscape:label="background"
     inkscape:groupmode="layer"
     id="layer1"
     transform="translate(-47.176353,-396.25591)"
     style="display:inline">
    <path
       inkscape:connector-curvature="0"
       d="m 739.2696,496.413 -0.70307,5.29853 -2.01502,4.94365 -3.18569,4.48041 -4.21509,3.9088 -5.10321,3.22882 -5.85004,2.44047 -6.45561,1.54375 -6.9199,0.53867 -623.191894,0 -6.920156,-0.53867 -6.456301,-1.54375 -5.851023,-2.44047 -5.104326,-3.22882 -4.216208,-3.9088 -3.186669,-4.48041 -2.01571,-4.94365 -0.70333,-5.29853 0,-100.15709 657.645617,0 6.9199,0.53867 6.45561,1.54376 5.85004,2.44049 5.10321,3.22883 4.21509,3.90882 3.18569,4.48043 2.01502,4.94366 0.70307,5.29854 0,73.77389 0,0"
       id="path12-1"
       style="fill:#cc071e;stroke:none"
       inkscape:export-filename="/home/ruiwen/Desktop/Shared/HackerspaceSG LogoLong.png"
       inkscape:export-xdpi="601.44"
       inkscape:export-ydpi="601.44" />
  </g>
  <g
     inkscape:groupmode="layer"
     id="layer3"
     inkscape:label="stars"
     style="display:inline">
    <path
       transform="matrix(9.6293502,0,0,9.6293502,-633.4754,-1497.3202)"
       style="fill:#ffffff"
       d="m 132.803,162.166 0.822,-0.605 -1.005,0.008 -0.293,-1.007 -0.304,1.005 -1.002,-0.02 0.817,0.613 -0.326,0.997 0.806,-0.628 0.801,0.635 z"
       id="polygon50-9-8" />
    <path
       transform="matrix(9.6293502,0,0,9.6293502,-659.99019,-1469.6231)"
       style="fill:#ffffff"
       d="m 131.512,163.157 0.806,-0.628 0.801,0.635 -0.316,-0.998 0.822,-0.605 -1.005,0.008 -0.293,-1.007 -0.304,1.005 -1.002,-0.02 0.817,0.613 z"
       id="polygon50-9-6-3" />
    <path
       transform="matrix(9.6293502,0,0,9.6293502,-687.44709,-1469.8644)"
       style="fill:#ffffff"
       d="m 131.838,162.16 -0.326,0.997 0.806,-0.628 0.801,0.635 -0.316,-0.998 0.822,-0.605 -1.005,0.008 -0.293,-1.007 -0.304,1.005 -1.002,-0.02 z"
       id="polygon50-9-7-8" />
    <path
       transform="matrix(9.6293502,0,0,9.6293502,-633.29868,-1469.6231)"
       style="fill:#ffffff"
       d="m 132.023,161.567 -1.002,-0.02 0.817,0.613 -0.326,0.997 0.806,-0.628 0.801,0.635 -0.316,-0.998 0.822,-0.605 -1.005,0.008 -0.293,-1.007 z"
       id="polygon50-9-72-8" />
    <path
       transform="matrix(9.6293502,0,0,9.6293502,-659.9506,-1524.6138)"
       style="fill:#ffffff"
       d="m 131.838,162.16 -0.326,0.997 0.806,-0.628 0.801,0.635 -0.316,-0.998 0.822,-0.605 -1.005,0.008 -0.293,-1.007 -0.304,1.005 -1.002,-0.02 z"
       id="polygon50-9-79-3" />
  </g>
  <g
     inkscape:groupmode="layer"
     id="layer2"
     inkscape:label="text"
     style="display:inline"
     sodipodi:insensitive="true">
    <path
       inkscape:connector-curvature="0"
       id="path16-9-3"
       d="m 63.088734,74.32596 4.536917,0 0,-28.654534 -4.536917,0 0,-6.774886 14.043709,0 0,15.165743 4.398187,-2.408713 3.931691,-0.634192 3.997338,0.737954 2.854535,1.996239 1.712301,2.928092 0.57064,3.533509 0,14.110788 4.292997,0 0,6.774885 -13.79979,0 0,-18.836743 -0.16922,-1.62893 -0.530526,-1.098404 -0.926135,-0.620472 -1.356044,-0.195136 -2.276843,0.412378 -2.693033,1.386534 0,13.805888 4.292997,0 0,6.774885 -18.336706,0 0,-6.774885 -0.0061,0"
       style="fill:#ffffff" />
    <path
       inkscape:connector-curvature="0"
       id="path18-3-9"
       d="m 135.6855,81.100845 -14.23274,0 0,-2.298948 -3.92864,2.083231 -4.02926,0.642578 -4.27556,-0.69422 -3.40717,-1.92335 -2.2535,-2.913513 -0.81456,-3.664712 0.23015,-2.066986 0.66664,-1.89062 2.4998,-3.129802 3.81697,-2.057315 4.8483,-0.740146 3.44004,0.351398 3.20679,0.959674 0,-1.62207 -0.40209,-2.092378 -1.13613,-1.630455 -1.765,-1.058767 -2.28866,-0.377314 -2.86149,0.541198 -2.48646,1.757751 -7.57982,-1.311072 2.17928,-3.104076 3.04824,-2.16765 3.99267,-1.271244 5.01256,-0.414855 6.22092,0.65687 2.37948,0.838452 1.91256,1.193899 1.46093,1.560923 1.02458,1.939523 0.60354,2.3297 0.19778,2.731455 0,12.061858 4.72595,0 0,6.780983 -0.006,0 m -19.64168,-12.994852 -1.71944,0.27603 -1.357,0.765967 -0.8905,1.162718 -0.31995,1.466285 0.29604,1.556802 0.81456,1.242945 1.22274,0.823326 1.5206,0.297945 2.68769,-0.685263 3.1542,-2.36374 0,-2.420909 -3.03376,-1.623594 -2.37518,-0.498512 0,0"
       style="fill:#ffffff" />
    <path
       inkscape:connector-curvature="0"
       id="path22-2-8"
       d="m 168.68182,63.630056 -6.46389,0 -1.30202,-2.127919 -1.65018,-1.536221 -1.97604,-0.931376 -2.2796,-0.31338 -2.86044,0.537863 -2.17271,1.528599 -1.38034,2.391848 -0.48336,3.127611 0.45373,3.432225 1.31012,2.580409 2.0899,1.624548 2.79308,0.564637 2.16175,-0.329578 2.03368,-0.95329 1.80043,-1.523835 1.462,-2.041213 7.27492,3.231944 -2.37222,3.852797 -3.1823,2.78031 -3.96322,1.684956 -4.715,0.566733 -3.62916,-0.27971 -3.26607,-0.816883 -2.86574,-1.320683 -2.42819,-1.791111 -1.9534,-2.228166 -1.44138,-2.63185 -0.89213,-3.002161 -0.30565,-3.339099 0.28638,-3.149168 0.82813,-2.884619 1.32335,-2.572192 1.77205,-2.211885 2.17424,-1.8037 2.5299,-1.347636 2.83904,-0.843692 3.10166,-0.291871 4.51405,0.684501 4.37684,2.175464 0,-2.427007 6.46389,0 0,11.9338 -0.006,0"
       style="fill:#ffffff" />
    <path
       inkscape:connector-curvature="0"
       id="path24-1-7"
       d="m 172.78578,74.575978 4.53692,0 0,-28.904552 -4.53692,0 0,-6.774886 14.04371,0 0,26.605604 0.12806,0 10.00683,-7.768861 0,-0.128058 -6.46389,0 0,-5.908969 18.27572,0 0,5.908969 -3.23194,0 -8.57989,7.396882 7.82984,9.573871 3.9759,0 0,6.524867 -8.95188,0 -12.86679,-15.543819 -0.12806,0 0,9.018952 3.671,0 0,6.524867 -17.71471,0 0,-6.524867 0.006,0"
       style="fill:#ffffff" />
    <path
       inkscape:connector-curvature="0"
       id="path28-5-1"
       d="m 242.15061,74.575978 -2.6393,3.117415 -3.31388,2.256453 -3.94274,1.37148 -4.52587,0.462496 -3.63881,-0.26362 -3.25356,-0.772851 -2.83751,-1.255069 -2.39067,-1.710277 -1.91303,-2.138471 -1.40458,-2.539653 -0.86533,-2.913823 -0.29529,-3.260981 0.30383,-3.325569 0.87937,-3.04237 1.40676,-2.709789 1.88598,-2.327831 2.31703,-1.896492 2.69991,-1.415774 3.03464,-0.885675 3.3212,-0.306199 3.21732,0.311749 2.98207,0.911949 2.67564,1.477207 2.29805,2.007518 1.84926,2.502887 1.32932,2.963309 0.7382,3.388789 0.0759,3.779323 -21.50767,0 0.40086,2.563736 1.2235,2.364216 2.21481,1.734216 3.37477,0.673734 3.32418,-0.731761 3.51169,-2.689221 7.46396,2.298949 0,0 m -9.26288,-11.439861 -0.70174,-2.504661 -1.31288,-1.877519 -1.86056,-1.178917 -2.34478,-0.408852 -2.30667,0.363403 -1.78129,1.103168 -1.24504,1.86237 -0.69793,2.641008 12.25089,0 0,0"
       style="fill:#ffffff" />
    <path
       inkscape:connector-curvature="0"
       id="path30-3-6"
       d="m 266.82314,81.100845 -20.69663,0 0,-6.774885 5.46991,0 0,-15.854818 -4.96988,0 0,-6.774886 13.48879,0 0,7.463961 0.12196,0 1.65666,-3.383632 2.30781,-2.473504 2.88979,-1.517641 3.40259,-0.516044 1.36595,0 0,8.884796 -1.12203,0 -2.59199,0.2307 -2.11377,0.659037 -1.67642,1.037781 -1.27997,1.36693 -1.53402,3.522933 -0.43868,4.244403 0,3.109984 5.71993,0 0,6.774885 0,0"
       style="fill:#ffffff" />
    <path
       inkscape:connector-curvature="0"
       id="path32-9-3"
       d="m 275.89088,70.965958 6.83586,0 0.44364,1.766135 1.42235,1.532887 2.05351,0.945953 2.61147,0.291942 1.9545,-0.202473 1.51145,-0.575785 0.9752,-0.901647 0.34578,-1.18006 -0.48959,-1.303783 -1.34162,-0.820991 -4.47641,-0.942524 -5.59578,-1.258095 -2.74083,-1.215457 -2.44848,-1.856033 -1.55499,-2.324102 -0.622,-3.023849 0.80799,-3.471576 2.25321,-2.732384 3.44233,-1.789098 4.37532,-0.64172 3.8608,0.363593 3.53608,1.06334 0,-1.000073 6.7139,0 0,8.512818 -6.7139,0 -0.71233,-1.339846 -1.30002,-0.949956 -1.89457,-0.565781 -2.49599,-0.187323 -2.95449,0.629619 -0.80665,0.708131 -0.28184,0.900219 0.82275,1.209942 2.16908,0.740372 6.58204,1.203118 3.51541,1.028288 3.06663,1.689803 2.16908,2.634089 0.60771,1.759518 0.21504,2.101628 -0.73976,3.957606 -2.19643,3.129802 -3.61879,2.057315 -5.00684,0.740146 -4.80142,-0.538149 -2.65644,-1.51688 0,1.494012 -6.83586,0 0,-10.122691 -0.006,0"
       style="fill:#ffffff" />
    <path
       inkscape:connector-curvature="0"
       id="path34-1-3"
       d="m 325.11399,94.27254 -20.07464,0 0,-6.774886 4.96988,0 0,-29.026512 -4.96988,0 0,-6.774886 14.48277,0 0,3.731981 1.96813,-1.883046 2.03216,-1.294778 2.16022,-0.747101 2.3523,-0.240014 2.57131,0.299981 2.37037,0.865024 2.12568,1.377685 1.83726,1.837966 1.50511,2.245864 1.12923,2.601384 0.70961,2.904521 0.24625,3.155278 -0.23874,3.22444 -0.69244,2.931307 -1.1105,2.596012 -1.49288,2.218555 -1.83961,1.798936 -2.15068,1.337155 -2.42609,0.833211 -2.66584,0.287107 -2.29895,-0.205712 -2.10686,-0.648771 -2.00167,-1.139279 -1.98337,-1.677238 0,9.384832 5.59187,0 0,6.780984 0,0 m 0,-35.301362 -2.40366,0.522618 -1.77423,1.513354 -1.0985,2.422338 -0.37646,3.249571 0.40504,3.242901 1.15681,2.46712 1.82111,1.56957 2.39795,0.55025 2.37889,-0.543676 1.77919,-1.569284 1.11488,-2.502279 0.38599,-3.34266 -0.39995,-3.175537 -1.14434,-2.384321 -1.81894,-1.499348 -2.42378,-0.520617 0,0"
       style="fill:#ffffff" />
    <path
       inkscape:connector-curvature="0"
       id="path36-8-1"
       d="m 378.25812,81.100845 -14.23885,0 0,-2.298948 -3.92635,2.083231 -4.03155,0.642578 -4.27299,-0.69422 -3.40745,-1.92335 -2.25492,-2.913513 -0.81542,-3.664712 0.2299,-2.066986 0.66603,-1.89062 2.49837,-3.129802 3.81668,-2.057315 4.85087,-0.740146 3.44004,0.351398 3.20679,0.959674 0,-1.62207 -0.40113,-2.092378 -1.13404,-1.630455 -1.7629,-1.058767 -2.2877,-0.377314 -2.86149,0.541198 -2.48646,1.757751 -7.58593,-1.311072 2.17918,-3.104076 3.04758,-2.16765 3.99086,-1.271244 5.00903,-0.414855 6.22188,0.65687 2.38046,0.838452 1.91368,1.193899 1.46204,1.560923 1.02556,1.939523 0.60423,2.3297 0.19804,2.731455 0,12.061858 4.71986,0 0,6.780983 0.006,0 m -19.64778,-12.994852 -1.71688,0.27603 -1.35728,0.765967 -0.89193,1.162718 -0.32081,1.466285 0.29613,1.556802 0.81523,1.242945 1.22456,0.823326 1.52412,0.297945 2.68465,-0.685263 3.15114,-2.36374 0,-2.420909 -3.02918,-1.623594 -2.37975,-0.498512 0,0"
       style="fill:#ffffff" />
    <path
       inkscape:connector-curvature="0"
       id="path38-8-6"
       d="m 411.25443,63.630056 -6.46389,0 -1.30211,-2.127919 -1.65085,-1.536221 -1.97785,-0.931376 -2.28313,-0.31338 -2.86044,0.537863 -2.1727,1.528599 -1.38034,2.391848 -0.48336,3.127611 0.45373,3.432225 1.31011,2.580409 2.0899,1.624548 2.79308,0.564637 2.1627,-0.329578 2.03578,-0.95329 1.80253,-1.523835 1.46295,-2.041213 7.26883,3.231944 -2.37222,3.852797 -3.1823,2.78031 -3.96323,1.684956 -4.715,0.566733 -3.62916,-0.27971 -3.26607,-0.816883 -2.86574,-1.320683 -2.42818,-1.791111 -1.9534,-2.228166 -1.44138,-2.63185 -0.89213,-3.002161 -0.30565,-3.339099 0.28638,-3.149168 0.82813,-2.884619 1.32335,-2.572192 1.77205,-2.211885 2.17424,-1.8037 2.5299,-1.347636 2.83903,-0.843692 3.10166,-0.291871 4.51862,0.684501 4.37227,2.175464 0,-2.427007 6.46389,0 0,11.9338 0,0"
       style="fill:#ffffff" />
    <path
       inkscape:connector-curvature="0"
       id="path40-7-3"
       d="m 447.36683,74.575978 -2.63844,3.117415 -3.31246,2.256453 -3.94245,1.37148 -4.52844,0.462496 -3.63854,-0.26362 -3.25287,-0.772851 -2.83654,-1.255069 -2.38955,-1.710277 -1.9119,-2.138471 -1.4036,-2.539653 -0.86464,-2.913823 -0.29503,-3.260981 0.30358,-3.325569 0.87877,-3.04237 1.406,-2.709789 1.8853,-2.327831 2.31663,-1.896492 2.70003,-1.415774 3.03546,-0.885675 3.32295,-0.306199 3.21732,0.311749 2.98206,0.911949 2.67565,1.477207 2.29804,2.007518 1.84927,2.502887 1.32932,2.963309 0.73819,3.388789 0.0759,3.779323 -21.50767,0 0.40438,2.563736 1.22532,2.364216 2.21548,1.734216 3.37486,0.673734 3.32189,-0.731761 3.51397,-2.689221 7.45177,2.298949 0,0 m -9.26287,-11.439861 -0.69918,-2.504661 -1.31317,-1.877519 -1.86198,-1.178917 -2.34564,-0.408852 -2.30667,0.363403 -1.78128,1.103168 -1.24504,1.86237 -0.69794,2.641008 12.2509,0 0,0"
       style="fill:#ffffff" />
    <path
       inkscape:connector-curvature="0"
       id="path44-5-3"
       d="m 464.52662,70.904978 0,10.195867 -10.19587,0 0,-10.195867 10.19587,0 0,0"
       style="fill:#ffffff" />
    <path
       inkscape:connector-curvature="0"
       id="path46-2-0"
       d="m 474.03341,70.965958 6.83587,0 0.44363,1.766135 1.42236,1.532887 2.05121,0.945953 2.61376,0.291942 1.95451,-0.202473 1.51145,-0.575785 0.9752,-0.901647 0.34578,-1.18006 -0.48959,-1.303783 -1.34162,-0.820991 -4.47642,-0.942524 -5.59578,-1.258095 -2.74082,-1.215457 -2.44848,-1.856033 -1.55728,-2.324102 -0.61971,-3.023849 0.80789,-3.471576 2.25254,-2.732384 3.44052,-1.789098 4.37179,-0.64172 3.86538,0.363593 3.53151,1.06334 0,-1.000073 6.72,0 0,8.512818 -6.72,0 -0.71223,-1.339846 -1.29935,-0.949956 -1.89277,-0.565781 -2.49246,-0.187323 -2.95449,0.629619 -0.80665,0.708131 -0.28184,0.900219 0.82275,1.209942 2.16908,0.740372 6.58204,1.203118 3.51541,1.028288 3.06663,1.689803 2.16908,2.634089 0.60771,1.759518 0.21504,2.101628 -0.73976,3.957606 -2.19643,3.129802 -3.61879,2.057315 -5.00684,0.740146 -4.79684,-0.538149 -2.66102,-1.51688 0,1.494012 -6.83587,0 0,-10.122691 -0.006,0"
       style="fill:#ffffff" />
    <path
       inkscape:connector-curvature="0"
       id="path48-7-2"
       d="m 540.03824,58.471142 -4.96988,0 0,21.940628 -0.76759,5.523937 -1.0358,2.436642 -1.53832,2.135434 -2.09171,1.770982 -2.69598,1.343289 -3.35114,0.852351 -4.05718,0.298171 -4.13064,-0.19971 -3.54065,-0.602178 -2.96897,-1.00922 -2.41557,-1.420835 4.53692,-6.152889 3.63441,1.612923 3.63441,0.496987 3.52055,-0.609991 2.23368,-1.617306 1.17377,-2.305618 0.34082,-2.674929 0,-2.859965 -4.56969,3.037569 -2.16279,0.710704 -2.21939,0.227627 -2.52555,-0.294753 -2.3256,-0.850148 -2.0835,-1.354377 -1.79922,-1.807439 -1.47279,-2.209336 -1.10419,-2.560067 -0.69344,-2.859632 -0.24051,-3.10803 0.24898,-3.129909 0.71841,-2.87558 1.14504,-2.571012 1.52884,-2.216209 1.86987,-1.811168 2.16807,-1.355889 2.42346,-0.850374 2.63607,-0.294622 2.42234,0.255163 2.21138,0.761679 1.97699,1.262478 1.71917,1.75756 0.12805,0 0,-3.61002 14.48277,0 0,6.787082 0.006,0 m -20.32466,0.500036 -2.38842,0.527287 -1.80015,1.500301 -1.13585,2.350972 -0.39551,3.079303 0.40409,3.088831 1.15014,2.371934 1.80301,1.521262 2.36269,0.536815 2.35602,-0.534909 1.84779,-1.507923 1.20636,-2.335727 0.43172,-3.018323 -0.40599,-3.149811 -1.16349,-2.387179 -1.83921,-1.51364 -2.4332,-0.529193 0,0"
       style="fill:#ffffff" />
  </g>
</svg>
