  0
SECTION
  2
HEADER
  9
$ACADVER
  1
AC1014
  9
$HANDSEED
  5
FFFF
  9
$MEASUREMENT
 70
     1
  0
ENDSEC
  0
SECTION
  2
TABLES
  0
TABLE
  2
VPORT
  5
8
330
0
100
AcDbSymbolTable
 70
     4
  0
VPORT
  5
2E
330
8
100
AcDbSymbolTableRecord
100
AcDbViewportTableRecord
  2
*ACTIVE
 70
     0
 10
0.0
 20
0.0
 11
1.0
 21
1.0
 12
210.0
 22
148.5
 13
0.0
 23
0.0
 14
10.0
 24
10.0
 15
10.0
 25
10.0
 16
0.0
 26
0.0
 36
1.0
 17
0.0
 27
0.0
 37
0.0
 40
341.0
 41
1.24
 42
50.0
 43
0.0
 44
0.0
 50
0.0
 51
0.0
 71
     0
 72
   100
 73
     1
 74
     3
 75
     0
 76
     0
 77
     0
 78
     0
  0
ENDTAB
  0
TABLE
  2
LTYPE
  5
5
330
0
100
AcDbSymbolTable
 70
     1
  0
LTYPE
  5
14
330
5
100
AcDbSymbolTableRecord
100
AcDbLinetypeTableRecord
  2
BYBLOCK
 70
     0
  3

 72
    65
 73
     0
 40
0.0
  0
LTYPE
  5
15
330
5
100
AcDbSymbolTableRecord
100
AcDbLinetypeTableRecord
  2
BYLAYER
 70
     0
  3

 72
    65
 73
     0
 40
0.0
  0
LTYPE
  5
16
330
5
100
AcDbSymbolTableRecord
100
AcDbLinetypeTableRecord
  2
CONTINUOUS
 70
     0
  3
Solid line
 72
    65
 73
     0
 40
0.0
  0
ENDTAB
  0
TABLE
  2
LAYER
  5
2
100
AcDbSymbolTable
 70
4
  0
LAYER
  5
50
100
AcDbSymbolTableRecord
100
AcDbLayerTableRecord
  2
0
 70
0
  6
CONTINUOUS
  0
LAYER
  5
51
100
AcDbSymbolTableRecord
100
AcDbLayerTableRecord
  2
background
 70
0
  6
CONTINUOUS
  0
LAYER
  5
52
100
AcDbSymbolTableRecord
100
AcDbLayerTableRecord
  2
stars
 70
0
  6
CONTINUOUS
  0
LAYER
  5
53
100
AcDbSymbolTableRecord
100
AcDbLayerTableRecord
  2
text
 70
0
  6
CONTINUOUS
  0
ENDTAB
  0
TABLE
  2
STYLE
  5
3
330
0
100
AcDbSymbolTable
 70
     1
  0
STYLE
  5
11
330
3
100
AcDbSymbolTableRecord
100
AcDbTextStyleTableRecord
  2
STANDARD
 70
     0
 40
0.0
 41
1.0
 50
0.0
 71
     0
 42
2.5
  3
txt
  4

  0
ENDTAB
  0
TABLE
  2
VIEW
  5
6
330
0
100
AcDbSymbolTable
 70
     0
  0
ENDTAB
  0
TABLE
  2
UCS
  5
7
330
0
100
AcDbSymbolTable
 70
     0
  0
ENDTAB
  0
TABLE
  2
APPID
  5
9
330
0
100
AcDbSymbolTable
 70
     2
  0
APPID
  5
12
330
9
100
AcDbSymbolTableRecord
100
AcDbRegAppTableRecord
  2
ACAD
 70
     0
  0
ENDTAB
  0
TABLE
  2
DIMSTYLE
  5
A
330
0
100
AcDbSymbolTable
 70
     1
  0
DIMSTYLE
105
27
330
A
100
AcDbSymbolTableRecord
100
AcDbDimStyleTableRecord
  2
ISO-25
 70
     0
  3

  4

  5

  6

  7

 40
1.0
 41
2.5
 42
0.625
 43
3.75
 44
1.25
 45
0.0
 46
0.0
 47
0.0
 48
0.0
140
2.5
141
2.5
142
0.0
143
0.03937007874016
144
1.0
145
0.0
146
1.0
147
0.625
 71
     0
 72
     0
 73
     0
 74
     0
 75
     0
 76
     0
 77
     1
 78
     8
170
     0
171
     3
172
     1
173
     0
174
     0
175
     0
176
     0
177
     0
178
     0
270
     2
271
     2
272
     2
273
     2
274
     3
340
11
275
     0
280
     0
281
     0
282
     0
283
     0
284
     8
285
     0
286
     0
287
     3
288
     0
  0
ENDTAB
  0
TABLE
  2
BLOCK_RECORD
  5
1
330
0
100
AcDbSymbolTable
 70
     1
  0
BLOCK_RECORD
  5
1F
330
1
100
AcDbSymbolTableRecord
100
AcDbBlockTableRecord
  2
*MODEL_SPACE
  0
BLOCK_RECORD
  5
1B
330
1
100
AcDbSymbolTableRecord
100
AcDbBlockTableRecord
  2
*PAPER_SPACE
  0
ENDTAB
  0
ENDSEC
  0
SECTION
  2
BLOCKS
  0
BLOCK
  5
20
330
1F
100
AcDbEntity
  8
0
100
AcDbBlockBegin
  2
*MODEL_SPACE
 70
     0
 10
0.0
 20
0.0
 30
0.0
  3
*MODEL_SPACE
  1

  0
ENDBLK
  5
21
330
1F
100
AcDbEntity
  8
0
100
AcDbBlockEnd
  0
BLOCK
  5
1C
330
1B
100
AcDbEntity
 67
     1
  8
0
100
AcDbBlockBegin
  2
*PAPER_SPACE
  1

  0
ENDBLK
  5
1D
330
1B
100
AcDbEntity
 67
     1
  8
0
100
AcDbBlockEnd
  0
ENDSEC
  0
SECTION
  2
ENTITIES
  0
LWPOLYLINE
  5
100
100
AcDbEntity
  8
background
 62
7
100
AcDbPolyline
 90
30
 70
0
 10
195.324094
 20
7.445897
 30
0.0
 10
195.125672
 20
5.950534
 30
0.0
 10
194.556989
 20
4.555326
 30
0.0
 10
193.657916
 20
3.290855
 30
0.0
 10
192.468324
 20
2.187705
 30
0.0
 10
191.028085
 20
1.276460
 30
0.0
 10
189.377074
 20
0.587705
 30
0.0
 10
187.555157
 20
0.152025
 30
0.0
 10
185.602207
 20
-0.000000
 30
0.0
 10
9.723606
 20
-0.000000
 30
0.0
 10
7.770584
 20
0.152025
 30
0.0
 10
5.948473
 20
0.587705
 30
0.0
 10
4.297184
 20
1.276460
 30
0.0
 10
2.856630
 20
2.187705
 30
0.0
 10
1.666722
 20
3.290855
 30
0.0
 10
0.767374
 20
4.555326
 30
0.0
 10
0.198495
 20
5.950534
 30
0.0
 10
-0.000000
 20
7.445897
 30
0.0
 10
-0.000000
 20
35.712454
 30
0.0
 10
185.602207
 20
35.712454
 30
0.0
 10
187.555157
 20
35.560429
 30
0.0
 10
189.377074
 20
35.124746
 30
0.0
 10
191.028085
 20
34.435985
 30
0.0
 10
192.468324
 20
33.524738
 30
0.0
 10
193.657916
 20
32.421582
 30
0.0
 10
194.556989
 20
31.157105
 30
0.0
 10
195.125672
 20
29.761894
 30
0.0
 10
195.324094
 20
28.266528
 30
0.0
 10
195.324094
 20
7.445897
 30
0.0
 10
195.324094
 20
7.445897
 30
0.0
  0
LWPOLYLINE
  5
101
100
AcDbEntity
  8
stars
 62
7
100
AcDbPolyline
 90
11
 70
0
 10
182.126804
 20
17.584472
 30
0.0
 10
184.360685
 20
19.228630
 30
0.0
 10
181.629480
 20
19.206889
 30
0.0
 10
180.833218
 20
21.943529
 30
0.0
 10
180.007063
 20
19.212325
 30
0.0
 10
177.284011
 20
19.266677
 30
0.0
 10
179.504304
 20
17.600778
 30
0.0
 10
178.618361
 20
14.891314
 30
0.0
 10
180.808760
 20
16.597978
 30
0.0
 10
182.985571
 20
14.872291
 30
0.0
 10
182.126804
 20
17.584472
 30
0.0
  0
LWPOLYLINE
  5
102
100
AcDbEntity
  8
stars
 62
7
100
AcDbPolyline
 90
11
 70
0
 10
171.135298
 20
7.074577
 30
0.0
 10
173.325697
 20
8.781240
 30
0.0
 10
175.502508
 20
7.055554
 30
0.0
 10
174.643741
 20
9.767735
 30
0.0
 10
176.877622
 20
11.411893
 30
0.0
 10
174.146417
 20
11.390152
 30
0.0
 10
173.350155
 20
14.126792
 30
0.0
 10
172.524000
 20
11.395588
 30
0.0
 10
169.800948
 20
11.449940
 30
0.0
 10
172.021241
 20
9.784041
 30
0.0
 10
171.135298
 20
7.074577
 30
0.0
  0
LWPOLYLINE
  5
103
100
AcDbEntity
  8
stars
 62
7
100
AcDbPolyline
 90
11
 70
0
 10
164.272293
 20
9.852141
 30
0.0
 10
163.386350
 20
7.142677
 30
0.0
 10
165.576749
 20
8.849341
 30
0.0
 10
167.753560
 20
7.123654
 30
0.0
 10
166.894794
 20
9.835835
 30
0.0
 10
169.128674
 20
11.479994
 30
0.0
 10
166.397470
 20
11.458253
 30
0.0
 10
165.601208
 20
14.194892
 30
0.0
 10
164.775053
 20
11.463688
 30
0.0
 10
162.052001
 20
11.518040
 30
0.0
 10
164.272293
 20
9.852141
 30
0.0
  0
LWPOLYLINE
  5
104
100
AcDbEntity
  8
stars
 62
7
100
AcDbPolyline
 90
11
 70
0
 10
180.056937
 20
11.395588
 30
0.0
 10
177.333885
 20
11.449940
 30
0.0
 10
179.554178
 20
9.784041
 30
0.0
 10
178.668235
 20
7.074577
 30
0.0
 10
180.858634
 20
8.781240
 30
0.0
 10
183.035445
 20
7.055554
 30
0.0
 10
182.176678
 20
9.767735
 30
0.0
 10
184.410559
 20
11.411893
 30
0.0
 10
181.679354
 20
11.390152
 30
0.0
 10
180.883093
 20
14.126792
 30
0.0
 10
180.056937
 20
11.395588
 30
0.0
  0
LWPOLYLINE
  5
105
100
AcDbEntity
  8
stars
 62
7
100
AcDbPolyline
 90
11
 70
0
 10
172.032414
 20
25.303638
 30
0.0
 10
171.146471
 20
22.594175
 30
0.0
 10
173.336870
 20
24.300838
 30
0.0
 10
175.513681
 20
22.575151
 30
0.0
 10
174.654914
 20
25.287333
 30
0.0
 10
176.888795
 20
26.931491
 30
0.0
 10
174.157590
 20
26.909750
 30
0.0
 10
173.361329
 20
29.646390
 30
0.0
 10
172.535173
 20
26.915185
 30
0.0
 10
169.812121
 20
26.969537
 30
0.0
 10
172.032414
 20
25.303638
 30
0.0
  0
LWPOLYLINE
  5
106
100
AcDbEntity
  8
text
 62
7
100
AcDbPolyline
 90
30
 70
0
 10
17.805043
 20
14.736016
 30
0.0
 10
19.085462
 20
14.736016
 30
0.0
 10
19.085462
 20
22.822962
 30
0.0
 10
17.805043
 20
22.822962
 30
0.0
 10
17.805043
 20
24.734986
 30
0.0
 10
21.768489
 20
24.734986
 30
0.0
 10
21.768489
 20
20.454876
 30
0.0
 10
23.009756
 20
21.134668
 30
0.0
 10
24.119366
 20
21.313651
 30
0.0
 10
25.247504
 20
21.105384
 30
0.0
 10
26.053117
 20
20.542001
 30
0.0
 10
26.536366
 20
19.715629
 30
0.0
 10
26.697414
 20
18.718394
 30
0.0
 10
26.697414
 20
14.736016
 30
0.0
 10
27.908993
 20
14.736016
 30
0.0
 10
27.908993
 20
12.823993
 30
0.0
 10
24.014385
 20
12.823993
 30
0.0
 10
24.014385
 20
18.140140
 30
0.0
 10
23.966628
 20
18.599861
 30
0.0
 10
23.816902
 20
18.909855
 30
0.0
 10
23.555526
 20
19.084966
 30
0.0
 10
23.172820
 20
19.140037
 30
0.0
 10
22.530244
 20
19.023655
 30
0.0
 10
21.770210
 20
18.632344
 30
0.0
 10
21.770210
 20
14.736016
 30
0.0
 10
22.981790
 20
14.736016
 30
0.0
 10
22.981790
 20
12.823993
 30
0.0
 10
17.806764
 20
12.823993
 30
0.0
 10
17.806764
 20
14.736016
 30
0.0
 10
17.805042
 20
14.736016
 30
0.0
  0
LWPOLYLINE
  5
107
100
AcDbEntity
  8
text
 62
7
100
AcDbPolyline
 90
39
 70
0
 10
38.293463
 20
12.823993
 30
0.0
 10
34.276668
 20
12.823993
 30
0.0
 10
34.276668
 20
13.472807
 30
0.0
 10
33.167918
 20
12.884873
 30
0.0
 10
32.030772
 20
12.703523
 30
0.0
 10
30.824114
 20
12.899448
 30
0.0
 10
29.862534
 20
13.442260
 30
0.0
 10
29.226547
 20
14.264518
 30
0.0
 10
28.996660
 20
15.298781
 30
0.0
 10
29.061613
 20
15.882130
 30
0.0
 10
29.249754
 20
16.415705
 30
0.0
 10
29.955253
 20
17.299005
 30
0.0
 10
31.032487
 20
17.879625
 30
0.0
 10
32.400785
 20
18.088511
 30
0.0
 10
33.371640
 20
17.989338
 30
0.0
 10
34.276668
 20
17.718497
 30
0.0
 10
34.276668
 20
18.176281
 30
0.0
 10
34.163189
 20
18.766797
 30
0.0
 10
33.842548
 20
19.226947
 30
0.0
 10
33.344426
 20
19.525755
 30
0.0
 10
32.698515
 20
19.632241
 30
0.0
 10
31.890939
 20
19.479503
 30
0.0
 10
31.189205
 20
18.983427
 30
0.0
 10
29.050011
 20
19.353441
 30
0.0
 10
29.665052
 20
20.229480
 30
0.0
 10
30.525333
 20
20.841239
 30
0.0
 10
31.652154
 20
21.200012
 30
0.0
 10
33.066809
 20
21.317093
 30
0.0
 10
34.822491
 20
21.131710
 30
0.0
 10
35.494033
 20
20.895080
 30
0.0
 10
36.033800
 20
20.558135
 30
0.0
 10
36.446107
 20
20.117608
 30
0.0
 10
36.735266
 20
19.570232
 30
0.0
 10
36.905599
 20
18.912739
 30
0.0
 10
36.961417
 20
18.141861
 30
0.0
 10
36.961417
 20
14.737737
 30
0.0
 10
38.295185
 20
14.737737
 30
0.0
 10
38.295185
 20
12.823993
 30
0.0
 10
38.293492
 20
12.823993
 30
0.0
  0
LWPOLYLINE
  5
108
100
AcDbEntity
  8
text
 62
7
100
AcDbPolyline
 90
15
 70
0
 10
32.750173
 20
16.491429
 30
0.0
 10
32.264909
 20
16.413527
 30
0.0
 10
31.881933
 20
16.197354
 30
0.0
 10
31.630614
 20
15.869209
 30
0.0
 10
31.540317
 20
15.455391
 30
0.0
 10
31.623866
 20
15.016027
 30
0.0
 10
31.853753
 20
14.665240
 30
0.0
 10
32.198838
 20
14.432879
 30
0.0
 10
32.627985
 20
14.348793
 30
0.0
 10
33.386511
 20
14.542189
 30
0.0
 10
34.276696
 20
15.209289
 30
0.0
 10
34.276696
 20
15.892523
 30
0.0
 10
33.420502
 20
16.350738
 30
0.0
 10
32.750173
 20
16.491429
 30
0.0
 10
32.750173
 20
16.491429
 30
0.0
  0
LWPOLYLINE
  5
109
100
AcDbEntity
  8
text
 62
7
100
AcDbPolyline
 90
45
 70
0
 10
47.605758
 20
17.754638
 30
0.0
 10
45.781505
 20
17.754638
 30
0.0
 10
45.414046
 20
18.355184
 30
0.0
 10
44.948328
 20
18.788740
 30
0.0
 10
44.390646
 20
19.051595
 30
0.0
 10
43.747292
 20
19.140037
 30
0.0
 10
42.940012
 20
18.988240
 30
0.0
 10
42.326825
 20
18.556836
 30
0.0
 10
41.937263
 20
17.881803
 30
0.0
 10
41.800848
 20
16.999122
 30
0.0
 10
41.928900
 20
16.030472
 30
0.0
 10
42.298645
 20
15.302223
 30
0.0
 10
42.888462
 20
14.843739
 30
0.0
 10
43.676731
 20
14.684386
 30
0.0
 10
44.286825
 20
14.777401
 30
0.0
 10
44.860774
 20
15.046440
 30
0.0
 10
45.368896
 20
15.476500
 30
0.0
 10
45.781505
 20
16.052576
 30
0.0
 10
47.834649
 20
15.140449
 30
0.0
 10
47.165156
 20
14.053105
 30
0.0
 10
46.267040
 20
13.268439
 30
0.0
 10
45.148531
 20
12.792907
 30
0.0
 10
43.817853
 20
12.632963
 30
0.0
 10
42.793624
 20
12.711903
 30
0.0
 10
41.871866
 20
12.942446
 30
0.0
 10
41.063091
 20
13.315172
 30
0.0
 10
40.377801
 20
13.820663
 30
0.0
 10
39.826509
 20
14.449501
 30
0.0
 10
39.419719
 20
15.192267
 30
0.0
 10
39.167940
 20
16.039544
 30
0.0
 10
39.081679
 20
16.981912
 30
0.0
 10
39.162502
 20
17.870677
 30
0.0
 10
39.396218
 20
18.684781
 30
0.0
 10
39.769697
 20
19.410710
 30
0.0
 10
40.269809
 20
20.034954
 30
0.0
 10
40.883428
 20
20.543998
 30
0.0
 10
41.597422
 20
20.924331
 30
0.0
 10
42.398662
 20
21.162439
 30
0.0
 10
43.274020
 20
21.244812
 30
0.0
 10
44.547985
 20
21.051630
 30
0.0
 10
45.783226
 20
20.437666
 30
0.0
 10
45.783226
 20
21.122621
 30
0.0
 10
47.607480
 20
21.122621
 30
0.0
 10
47.607480
 20
17.754638
 30
0.0
 10
47.605786
 20
17.754638
 30
0.0
  0
LWPOLYLINE
  5
10a
100
AcDbEntity
  8
text
 62
7
100
AcDbPolyline
 90
28
 70
0
 10
48.763987
 20
14.665455
 30
0.0
 10
50.044406
 20
14.665455
 30
0.0
 10
50.044406
 20
22.822962
 30
0.0
 10
48.763987
 20
22.822962
 30
0.0
 10
48.763987
 20
24.734986
 30
0.0
 10
52.727434
 20
24.734986
 30
0.0
 10
52.727434
 20
17.226293
 30
0.0
 10
52.763575
 20
17.226293
 30
0.0
 10
55.587725
 20
19.418838
 30
0.0
 10
55.587725
 20
19.454979
 30
0.0
 10
53.763472
 20
19.454979
 30
0.0
 10
53.763472
 20
21.122621
 30
0.0
 10
58.921286
 20
21.122621
 30
0.0
 10
58.921286
 20
19.454979
 30
0.0
 10
58.009161
 20
19.454979
 30
0.0
 10
55.587725
 20
17.367415
 30
0.0
 10
57.797480
 20
14.665455
 30
0.0
 10
58.919567
 20
14.665455
 30
0.0
 10
58.919567
 20
12.823993
 30
0.0
 10
56.393148
 20
12.823993
 30
0.0
 10
52.761854
 20
17.210804
 30
0.0
 10
52.725712
 20
17.210804
 30
0.0
 10
52.725712
 20
14.665455
 30
0.0
 10
53.761750
 20
14.665455
 30
0.0
 10
53.761750
 20
12.823993
 30
0.0
 10
48.762265
 20
12.823993
 30
0.0
 10
48.762265
 20
14.665455
 30
0.0
 10
48.763959
 20
14.665455
 30
0.0
  0
LWPOLYLINE
  5
10b
100
AcDbEntity
  8
text
 62
7
100
AcDbPolyline
 90
38
 70
0
 10
68.340283
 20
14.665455
 30
0.0
 10
67.595414
 20
13.785652
 30
0.0
 10
66.660164
 20
13.148830
 30
0.0
 10
65.547435
 20
12.761768
 30
0.0
 10
64.270134
 20
12.631242
 30
0.0
 10
63.243181
 20
12.705641
 30
0.0
 10
62.324954
 20
12.923757
 30
0.0
 10
61.524145
 20
13.277965
 30
0.0
 10
60.849445
 20
13.760643
 30
0.0
 10
60.309546
 20
14.364167
 30
0.0
 10
59.913142
 20
15.080914
 30
0.0
 10
59.668926
 20
15.903259
 30
0.0
 10
59.585589
 20
16.823581
 30
0.0
 10
59.671337
 20
17.762130
 30
0.0
 10
59.919514
 20
18.620755
 30
0.0
 10
60.316533
 20
19.385517
 30
0.0
 10
60.848799
 20
20.042483
 30
0.0
 10
61.502716
 20
20.577715
 30
0.0
 10
62.264691
 20
20.977278
 30
0.0
 10
63.121134
 20
21.227235
 30
0.0
 10
64.058450
 20
21.313651
 30
0.0
 10
64.966449
 20
21.225669
 30
0.0
 10
65.808056
 20
20.968297
 30
0.0
 10
66.563181
 20
20.551396
 30
0.0
 10
67.211742
 20
19.984830
 30
0.0
 10
67.733644
 20
19.278459
 30
0.0
 10
68.108807
 20
18.442148
 30
0.0
 10
68.317144
 20
17.485756
 30
0.0
 10
68.338565
 20
16.419147
 30
0.0
 10
62.268622
 20
16.419147
 30
0.0
 10
62.381754
 20
15.695604
 30
0.0
 10
62.727053
 20
15.028370
 30
0.0
 10
63.352121
 20
14.538935
 30
0.0
 10
64.304556
 20
14.348793
 30
0.0
 10
65.242714
 20
14.555312
 30
0.0
 10
66.233791
 20
15.314270
 30
0.0
 10
68.340286
 20
14.665455
 30
0.0
 10
68.340286
 20
14.665455
 30
0.0
  0
LWPOLYLINE
  5
10c
100
AcDbEntity
  8
text
 62
7
100
AcDbPolyline
 90
11
 70
0
 10
65.726096
 20
17.894038
 30
0.0
 10
65.528049
 20
18.600909
 30
0.0
 10
65.157525
 20
19.130787
 30
0.0
 10
64.632434
 20
19.463504
 30
0.0
 10
63.970685
 20
19.578891
 30
0.0
 10
63.319691
 20
19.476330
 30
0.0
 10
62.816971
 20
19.164992
 30
0.0
 10
62.465593
 20
18.639390
 30
0.0
 10
62.268622
 20
17.894038
 30
0.0
 10
65.726096
 20
17.894038
 30
0.0
 10
65.726096
 20
17.894038
 30
0.0
  0
LWPOLYLINE
  5
10d
100
AcDbEntity
  8
text
 62
7
100
AcDbPolyline
 90
27
 70
0
 10
75.303420
 20
12.823993
 30
0.0
 10
69.462371
 20
12.823993
 30
0.0
 10
69.462371
 20
14.736016
 30
0.0
 10
71.006101
 20
14.736016
 30
0.0
 10
71.006101
 20
19.210598
 30
0.0
 10
69.603490
 20
19.210598
 30
0.0
 10
69.603490
 20
21.122621
 30
0.0
 10
73.410326
 20
21.122621
 30
0.0
 10
73.410326
 20
19.016126
 30
0.0
 10
73.444746
 20
19.016126
 30
0.0
 10
73.912293
 20
19.971062
 30
0.0
 10
74.563608
 20
20.669140
 30
0.0
 10
75.379171
 20
21.097452
 30
0.0
 10
76.339457
 20
21.243091
 30
0.0
 10
76.724959
 20
21.243091
 30
0.0
 10
76.724959
 20
18.735604
 30
0.0
 10
76.408297
 20
18.735604
 30
0.0
 10
75.676780
 20
18.670495
 30
0.0
 10
75.080227
 20
18.484500
 30
0.0
 10
74.607104
 20
18.191615
 30
0.0
 10
74.245868
 20
17.805837
 30
0.0
 10
73.812933
 20
16.811587
 30
0.0
 10
73.689128
 20
15.613723
 30
0.0
 10
73.689128
 20
14.736016
 30
0.0
 10
75.303420
 20
14.736016
 30
0.0
 10
75.303420
 20
12.823993
 30
0.0
 10
75.303420
 20
12.823993
 30
0.0
  0
LWPOLYLINE
  5
10e
100
AcDbEntity
  8
text
 62
7
100
AcDbPolyline
 90
53
 70
0
 10
77.862537
 20
15.684283
 30
0.0
 10
79.791769
 20
15.684283
 30
0.0
 10
79.916974
 20
15.185841
 30
0.0
 10
80.318393
 20
14.753226
 30
0.0
 10
80.897939
 20
14.486257
 30
0.0
 10
81.634954
 20
14.403864
 30
0.0
 10
82.186557
 20
14.461007
 30
0.0
 10
82.613122
 20
14.623506
 30
0.0
 10
82.888345
 20
14.877971
 30
0.0
 10
82.985932
 20
15.211010
 30
0.0
 10
82.847759
 20
15.578967
 30
0.0
 10
82.469124
 20
15.810669
 30
0.0
 10
81.205781
 20
16.076670
 30
0.0
 10
79.626528
 20
16.431732
 30
0.0
 10
78.853005
 20
16.774761
 30
0.0
 10
78.161989
 20
17.298575
 30
0.0
 10
77.723136
 20
17.954488
 30
0.0
 10
77.547594
 20
18.807886
 30
0.0
 10
77.775627
 20
19.787641
 30
0.0
 10
78.411533
 20
20.558781
 30
0.0
 10
79.383035
 20
21.063704
 30
0.0
 10
80.617847
 20
21.244812
 30
0.0
 10
81.707451
 20
21.142198
 30
0.0
 10
82.705411
 20
20.842100
 30
0.0
 10
82.705411
 20
21.124342
 30
0.0
 10
84.600223
 20
21.124342
 30
0.0
 10
84.600223
 20
18.721836
 30
0.0
 10
82.705411
 20
18.721836
 30
0.0
 10
82.504376
 20
19.099970
 30
0.0
 10
82.137481
 20
19.368069
 30
0.0
 10
81.602792
 20
19.527745
 30
0.0
 10
80.898368
 20
19.580612
 30
0.0
 10
80.064545
 20
19.402919
 30
0.0
 10
79.836891
 20
19.203069
 30
0.0
 10
79.757349
 20
18.949007
 30
0.0
 10
79.989547
 20
18.607535
 30
0.0
 10
80.601710
 20
18.398585
 30
0.0
 10
82.459308
 20
18.059038
 30
0.0
 10
83.451435
 20
17.768833
 30
0.0
 10
84.316906
 20
17.291933
 30
0.0
 10
84.929068
 20
16.548534
 30
0.0
 10
85.100578
 20
16.051959
 30
0.0
 10
85.161267
 20
15.458833
 30
0.0
 10
84.952490
 20
14.341909
 30
0.0
 10
84.332609
 20
13.458609
 30
0.0
 10
83.311306
 20
12.877989
 30
0.0
 10
81.898264
 20
12.669103
 30
0.0
 10
80.543197
 20
12.820981
 30
0.0
 10
79.793490
 20
13.249078
 30
0.0
 10
79.793490
 20
12.827435
 30
0.0
 10
77.864259
 20
12.827435
 30
0.0
 10
77.864259
 20
15.684283
 30
0.0
 10
77.862565
 20
15.684283
 30
0.0
  0
LWPOLYLINE
  5
10f
100
AcDbEntity
  8
text
 62
7
100
AcDbPolyline
 90
37
 70
0
 10
91.754393
 20
9.106648
 30
0.0
 10
86.088883
 20
9.106648
 30
0.0
 10
86.088883
 20
11.018671
 30
0.0
 10
87.491494
 20
11.018671
 30
0.0
 10
87.491494
 20
19.210598
 30
0.0
 10
86.088883
 20
19.210598
 30
0.0
 10
86.088883
 20
21.122621
 30
0.0
 10
90.176243
 20
21.122621
 30
0.0
 10
90.176243
 20
20.069373
 30
0.0
 10
90.731693
 20
20.600811
 30
0.0
 10
91.305213
 20
20.966226
 30
0.0
 10
91.914876
 20
21.177074
 30
0.0
 10
92.578747
 20
21.244812
 30
0.0
 10
93.304428
 20
21.160150
 30
0.0
 10
93.973399
 20
20.916021
 30
0.0
 10
94.573313
 20
20.527208
 30
0.0
 10
95.091829
 20
20.008493
 30
0.0
 10
95.516604
 20
19.374661
 30
0.0
 10
95.835298
 20
18.640492
 30
0.0
 10
96.035566
 20
17.820772
 30
0.0
 10
96.105063
 20
16.930282
 30
0.0
 10
96.037685
 20
16.020274
 30
0.0
 10
95.842263
 20
15.192994
 30
0.0
 10
95.528855
 20
14.460341
 30
0.0
 10
95.107531
 20
13.834216
 30
0.0
 10
94.588353
 20
13.326516
 30
0.0
 10
93.981383
 20
12.949141
 30
0.0
 10
93.296686
 20
12.713991
 30
0.0
 10
92.544327
 20
12.632963
 30
0.0
 10
91.895512
 20
12.691019
 30
0.0
 10
91.300910
 20
12.874117
 30
0.0
 10
90.735994
 20
13.195647
 30
0.0
 10
90.176243
 20
13.669000
 30
0.0
 10
90.176243
 20
11.020392
 30
0.0
 10
91.754393
 20
11.020392
 30
0.0
 10
91.754393
 20
9.106648
 30
0.0
 10
91.754393
 20
9.106648
 30
0.0
  0
LWPOLYLINE
  5
110
100
AcDbEntity
  8
text
 62
7
100
AcDbPolyline
 90
18
 70
0
 10
91.754393
 20
19.069477
 30
0.0
 10
91.076026
 20
18.921982
 30
0.0
 10
90.575299
 20
18.494880
 30
0.0
 10
90.265278
 20
17.811243
 30
0.0
 10
90.159033
 20
16.894141
 30
0.0
 10
90.273344
 20
15.978923
 30
0.0
 10
90.599822
 20
15.282647
 30
0.0
 10
91.113779
 20
14.839679
 30
0.0
 10
91.790534
 20
14.684386
 30
0.0
 10
92.461910
 20
14.837824
 30
0.0
 10
92.964037
 20
15.280711
 30
0.0
 10
93.278681
 20
15.986909
 30
0.0
 10
93.387616
 20
16.930282
 30
0.0
 10
93.274741
 20
17.826489
 30
0.0
 10
92.951783
 20
18.499398
 30
0.0
 10
92.438437
 20
18.922547
 30
0.0
 10
91.754393
 20
19.069477
 30
0.0
 10
91.754393
 20
19.069477
 30
0.0
  0
LWPOLYLINE
  5
111
100
AcDbEntity
  8
text
 62
7
100
AcDbPolyline
 90
39
 70
0
 10
106.752847
 20
12.823993
 30
0.0
 10
102.734327
 20
12.823993
 30
0.0
 10
102.734327
 20
13.472807
 30
0.0
 10
101.626224
 20
12.884873
 30
0.0
 10
100.488431
 20
12.703523
 30
0.0
 10
99.282498
 20
12.899448
 30
0.0
 10
98.320840
 20
13.442260
 30
0.0
 10
97.684452
 20
14.264518
 30
0.0
 10
97.454322
 20
15.298781
 30
0.0
 10
97.519205
 20
15.882130
 30
0.0
 10
97.707173
 20
16.415705
 30
0.0
 10
98.412269
 20
17.299005
 30
0.0
 10
99.489421
 20
17.879625
 30
0.0
 10
100.858444
 20
18.088511
 30
0.0
 10
101.829300
 20
17.989338
 30
0.0
 10
102.734327
 20
17.718497
 30
0.0
 10
102.734327
 20
18.176281
 30
0.0
 10
102.621120
 20
18.766797
 30
0.0
 10
102.301068
 20
19.226947
 30
0.0
 10
101.803539
 20
19.525755
 30
0.0
 10
101.157899
 20
19.632241
 30
0.0
 10
100.350323
 20
19.479503
 30
0.0
 10
99.648589
 20
18.983427
 30
0.0
 10
97.507671
 20
19.353441
 30
0.0
 10
98.122684
 20
20.229480
 30
0.0
 10
98.982778
 20
20.841239
 30
0.0
 10
100.109088
 20
21.200012
 30
0.0
 10
101.522747
 20
21.317093
 30
0.0
 10
103.278700
 20
21.131710
 30
0.0
 10
103.950519
 20
20.895080
 30
0.0
 10
104.490602
 20
20.558135
 30
0.0
 10
104.903222
 20
20.117608
 30
0.0
 10
105.192658
 20
19.570232
 30
0.0
 10
105.363185
 20
18.912739
 30
0.0
 10
105.419076
 20
18.141861
 30
0.0
 10
105.419076
 20
14.737737
 30
0.0
 10
106.751126
 20
14.737737
 30
0.0
 10
106.751126
 20
12.823993
 30
0.0
 10
106.752819
 20
12.823993
 30
0.0
  0
LWPOLYLINE
  5
112
100
AcDbEntity
  8
text
 62
7
100
AcDbPolyline
 90
15
 70
0
 10
101.207779
 20
16.491429
 30
0.0
 10
100.723237
 20
16.413527
 30
0.0
 10
100.340183
 20
16.197354
 30
0.0
 10
100.088460
 20
15.869209
 30
0.0
 10
99.997920
 20
15.455391
 30
0.0
 10
100.081495
 20
15.016027
 30
0.0
 10
100.311571
 20
14.665240
 30
0.0
 10
100.657169
 20
14.432879
 30
0.0
 10
101.087309
 20
14.348793
 30
0.0
 10
101.844977
 20
14.542189
 30
0.0
 10
102.734299
 20
15.209289
 30
0.0
 10
102.734299
 20
15.892523
 30
0.0
 10
101.879397
 20
16.350738
 30
0.0
 10
101.207779
 20
16.491429
 30
0.0
 10
101.207779
 20
16.491429
 30
0.0
  0
LWPOLYLINE
  5
113
100
AcDbEntity
  8
text
 62
7
100
AcDbPolyline
 90
45
 70
0
 10
116.065139
 20
17.754638
 30
0.0
 10
114.240886
 20
17.754638
 30
0.0
 10
113.873401
 20
18.355184
 30
0.0
 10
113.407495
 20
18.788740
 30
0.0
 10
112.849302
 20
19.051595
 30
0.0
 10
112.204952
 20
19.140037
 30
0.0
 10
111.397672
 20
18.988240
 30
0.0
 10
110.784488
 20
18.556836
 30
0.0
 10
110.394925
 20
17.881803
 30
0.0
 10
110.258510
 20
16.999122
 30
0.0
 10
110.386563
 20
16.030472
 30
0.0
 10
110.756305
 20
15.302223
 30
0.0
 10
111.346121
 20
14.843739
 30
0.0
 10
112.134390
 20
14.684386
 30
0.0
 10
112.744752
 20
14.777401
 30
0.0
 10
113.319295
 20
15.046440
 30
0.0
 10
113.828009
 20
15.476500
 30
0.0
 10
114.240886
 20
16.052576
 30
0.0
 10
116.292311
 20
15.140449
 30
0.0
 10
115.622818
 20
14.053105
 30
0.0
 10
114.724702
 20
13.268439
 30
0.0
 10
113.606191
 20
12.792907
 30
0.0
 10
112.275513
 20
12.632963
 30
0.0
 10
111.251283
 20
12.711903
 30
0.0
 10
110.329526
 20
12.942446
 30
0.0
 10
109.520750
 20
13.315172
 30
0.0
 10
108.835464
 20
13.820663
 30
0.0
 10
108.284171
 20
14.449501
 30
0.0
 10
107.877381
 20
15.192267
 30
0.0
 10
107.625602
 20
16.039544
 30
0.0
 10
107.539341
 20
16.981912
 30
0.0
 10
107.620164
 20
17.870677
 30
0.0
 10
107.853881
 20
18.684781
 30
0.0
 10
108.227360
 20
19.410710
 30
0.0
 10
108.727471
 20
20.034954
 30
0.0
 10
109.341090
 20
20.543998
 30
0.0
 10
110.055084
 20
20.924331
 30
0.0
 10
110.856322
 20
21.162439
 30
0.0
 10
111.731679
 20
21.244812
 30
0.0
 10
113.006934
 20
21.051630
 30
0.0
 10
114.240886
 20
20.437666
 30
0.0
 10
114.240886
 20
21.122621
 30
0.0
 10
116.065139
 20
21.122621
 30
0.0
 10
116.065139
 20
17.754638
 30
0.0
 10
116.065139
 20
17.754638
 30
0.0
  0
LWPOLYLINE
  5
114
100
AcDbEntity
  8
text
 62
7
100
AcDbPolyline
 90
38
 70
0
 10
126.256861
 20
14.665455
 30
0.0
 10
125.512235
 20
13.785652
 30
0.0
 10
124.577385
 20
13.148830
 30
0.0
 10
123.464738
 20
12.761768
 30
0.0
 10
122.186711
 20
12.631242
 30
0.0
 10
121.159834
 20
12.705641
 30
0.0
 10
120.241802
 20
12.923757
 30
0.0
 10
119.441268
 20
13.277965
 30
0.0
 10
118.766884
 20
13.760643
 30
0.0
 10
118.227303
 20
14.364167
 30
0.0
 10
117.831176
 20
15.080914
 30
0.0
 10
117.587155
 20
15.903259
 30
0.0
 10
117.503891
 20
16.823581
 30
0.0
 10
117.589568
 20
17.762130
 30
0.0
 10
117.837577
 20
18.620755
 30
0.0
 10
118.234381
 20
19.385517
 30
0.0
 10
118.766455
 20
20.042483
 30
0.0
 10
119.420259
 20
20.577715
 30
0.0
 10
120.182267
 20
20.977278
 30
0.0
 10
121.038942
 20
21.227235
 30
0.0
 10
121.976752
 20
21.313651
 30
0.0
 10
122.884751
 20
21.225669
 30
0.0
 10
123.726355
 20
20.968297
 30
0.0
 10
124.481483
 20
20.551396
 30
0.0
 10
125.130041
 20
19.984830
 30
0.0
 10
125.651946
 20
19.278459
 30
0.0
 10
126.027109
 20
18.442148
 30
0.0
 10
126.235443
 20
17.485756
 30
0.0
 10
126.256864
 20
16.419147
 30
0.0
 10
120.186921
 20
16.419147
 30
0.0
 10
120.301046
 20
15.695604
 30
0.0
 10
120.646859
 20
15.028370
 30
0.0
 10
121.272117
 20
14.538935
 30
0.0
 10
122.224577
 20
14.348793
 30
0.0
 10
123.162088
 20
14.555312
 30
0.0
 10
124.153809
 20
15.314270
 30
0.0
 10
126.256864
 20
14.665455
 30
0.0
 10
126.256864
 20
14.665455
 30
0.0
  0
LWPOLYLINE
  5
115
100
AcDbEntity
  8
text
 62
7
100
AcDbPolyline
 90
11
 70
0
 10
123.642676
 20
17.894038
 30
0.0
 10
123.445352
 20
18.600909
 30
0.0
 10
123.074746
 20
19.130787
 30
0.0
 10
122.549254
 20
19.463504
 30
0.0
 10
121.887262
 20
19.578891
 30
0.0
 10
121.236269
 20
19.476330
 30
0.0
 10
120.733552
 20
19.164992
 30
0.0
 10
120.382174
 20
18.639390
 30
0.0
 10
120.185200
 20
17.894038
 30
0.0
 10
123.642676
 20
17.894038
 30
0.0
 10
123.642676
 20
17.894038
 30
0.0
  0
LWPOLYLINE
  5
116
100
AcDbEntity
  8
text
 62
7
100
AcDbPolyline
 90
6
 70
0
 10
131.099735
 20
15.701493
 30
0.0
 10
131.099735
 20
12.823993
 30
0.0
 10
128.222234
 20
12.823993
 30
0.0
 10
128.222234
 20
15.701493
 30
0.0
 10
131.099735
 20
15.701493
 30
0.0
 10
131.099735
 20
15.701493
 30
0.0
  0
LWPOLYLINE
  5
117
100
AcDbEntity
  8
text
 62
7
100
AcDbPolyline
 90
53
 70
0
 10
133.782762
 20
15.684283
 30
0.0
 10
135.711997
 20
15.684283
 30
0.0
 10
135.837199
 20
15.185841
 30
0.0
 10
136.238621
 20
14.753226
 30
0.0
 10
136.817518
 20
14.486257
 30
0.0
 10
137.555179
 20
14.403864
 30
0.0
 10
138.106785
 20
14.461007
 30
0.0
 10
138.533350
 20
14.623506
 30
0.0
 10
138.808573
 20
14.877971
 30
0.0
 10
138.906160
 20
15.211010
 30
0.0
 10
138.767987
 20
15.578967
 30
0.0
 10
138.389352
 20
15.810669
 30
0.0
 10
137.126006
 20
16.076670
 30
0.0
 10
135.546753
 20
16.431732
 30
0.0
 10
134.773233
 20
16.774761
 30
0.0
 10
134.082217
 20
17.298575
 30
0.0
 10
133.642718
 20
17.954488
 30
0.0
 10
133.467822
 20
18.807886
 30
0.0
 10
133.695827
 20
19.787641
 30
0.0
 10
134.331543
 20
20.558781
 30
0.0
 10
135.302535
 20
21.063704
 30
0.0
 10
136.536351
 20
21.244812
 30
0.0
 10
137.627247
 20
21.142198
 30
0.0
 10
138.623918
 20
20.842100
 30
0.0
 10
138.623918
 20
21.124342
 30
0.0
 10
140.520451
 20
21.124342
 30
0.0
 10
140.520451
 20
18.721836
 30
0.0
 10
138.623918
 20
18.721836
 30
0.0
 10
138.422911
 20
19.099970
 30
0.0
 10
138.056205
 20
19.368069
 30
0.0
 10
137.522023
 20
19.527745
 30
0.0
 10
136.818596
 20
19.580612
 30
0.0
 10
135.984773
 20
19.402919
 30
0.0
 10
135.757118
 20
19.203069
 30
0.0
 10
135.677577
 20
18.949007
 30
0.0
 10
135.909775
 20
18.607535
 30
0.0
 10
136.521938
 20
18.398585
 30
0.0
 10
138.379536
 20
18.059038
 30
0.0
 10
139.371663
 20
17.768833
 30
0.0
 10
140.237134
 20
17.291933
 30
0.0
 10
140.849296
 20
16.548534
 30
0.0
 10
141.020806
 20
16.051959
 30
0.0
 10
141.081495
 20
15.458833
 30
0.0
 10
140.872718
 20
14.341909
 30
0.0
 10
140.252837
 20
13.458609
 30
0.0
 10
139.231534
 20
12.877989
 30
0.0
 10
137.818492
 20
12.669103
 30
0.0
 10
136.464717
 20
12.820981
 30
0.0
 10
135.713718
 20
13.249078
 30
0.0
 10
135.713718
 20
12.827435
 30
0.0
 10
133.784484
 20
12.827435
 30
0.0
 10
133.784484
 20
15.684283
 30
0.0
 10
133.782791
 20
15.684283
 30
0.0
  0
LWPOLYLINE
  5
118
100
AcDbEntity
  8
text
 62
7
100
AcDbPolyline
 90
50
 70
0
 10
152.410792
 20
19.210598
 30
0.0
 10
151.008182
 20
19.210598
 30
0.0
 10
151.008182
 20
13.018465
 30
0.0
 10
150.791551
 20
11.459487
 30
0.0
 10
150.499225
 20
10.771813
 30
0.0
 10
150.065077
 20
10.169146
 30
0.0
 10
149.474750
 20
9.669335
 30
0.0
 10
148.713884
 20
9.290229
 30
0.0
 10
147.768118
 20
9.049677
 30
0.0
 10
146.623092
 20
8.965527
 30
0.0
 10
145.457333
 20
9.021889
 30
0.0
 10
144.458083
 20
9.191837
 30
0.0
 10
143.620174
 20
9.476662
 30
0.0
 10
142.938446
 20
9.877653
 30
0.0
 10
144.218866
 20
11.614135
 30
0.0
 10
145.244577
 20
11.158932
 30
0.0
 10
146.270289
 20
11.018671
 30
0.0
 10
147.263866
 20
11.190824
 30
0.0
 10
147.894260
 20
11.647264
 30
0.0
 10
148.225524
 20
12.297961
 30
0.0
 10
148.321711
 20
13.052885
 30
0.0
 10
148.321711
 20
13.860031
 30
0.0
 10
147.032043
 20
13.002761
 30
0.0
 10
146.421656
 20
12.802185
 30
0.0
 10
145.795294
 20
12.737943
 30
0.0
 10
145.082528
 20
12.821129
 30
0.0
 10
144.426192
 20
13.061060
 30
0.0
 10
143.838182
 20
13.443295
 30
0.0
 10
143.330402
 20
13.953395
 30
0.0
 10
142.914748
 20
14.576918
 30
0.0
 10
142.603121
 20
15.299426
 30
0.0
 10
142.407417
 20
16.106478
 30
0.0
 10
142.339540
 20
16.983633
 30
0.0
 10
142.409807
 20
17.866963
 30
0.0
 10
142.612559
 20
18.678515
 30
0.0
 10
142.935714
 20
19.404112
 30
0.0
 10
143.367187
 20
20.029576
 30
0.0
 10
143.894906
 20
20.540727
 30
0.0
 10
144.506783
 20
20.923389
 30
0.0
 10
145.190738
 20
21.163384
 30
0.0
 10
145.934695
 20
21.246533
 30
0.0
 10
146.618333
 20
21.174520
 30
0.0
 10
147.242434
 20
20.959557
 30
0.0
 10
147.800385
 20
20.603258
 30
0.0
 10
148.285573
 20
20.107235
 30
0.0
 10
148.321711
 20
20.107235
 30
0.0
 10
148.321711
 20
21.126063
 30
0.0
 10
152.409071
 20
21.126063
 30
0.0
 10
152.409071
 20
19.210598
 30
0.0
 10
152.410764
 20
19.210598
 30
0.0
  0
LWPOLYLINE
  5
119
100
AcDbEntity
  8
text
 62
7
100
AcDbPolyline
 90
18
 70
0
 10
146.674693
 20
19.069477
 30
0.0
 10
146.000628
 20
18.920665
 30
0.0
 10
145.492586
 20
18.497246
 30
0.0
 10
145.172024
 20
17.833750
 30
0.0
 10
145.060402
 20
16.964702
 30
0.0
 10
145.174445
 20
16.092965
 30
0.0
 10
145.499040
 20
15.423553
 30
0.0
 10
146.007890
 20
14.994219
 30
0.0
 10
146.674693
 20
14.842718
 30
0.0
 10
147.339614
 20
14.993681
 30
0.0
 10
147.861102
 20
15.419250
 30
0.0
 10
148.201563
 20
16.078444
 30
0.0
 10
148.323404
 20
16.930282
 30
0.0
 10
148.208825
 20
17.819229
 30
0.0
 10
147.880462
 20
18.492944
 30
0.0
 10
147.361396
 20
18.920127
 30
0.0
 10
146.674693
 20
19.069477
 30
0.0
 10
146.674693
 20
19.069477
 30
0.0
  0
ENDSEC
  0
SECTION
  2
OBJECTS
  0
DICTIONARY
  5
C
330
0
100
AcDbDictionary
  3
ACAD_GROUP
350
D
  3
ACAD_MLINESTYLE
350
17
  0
DICTIONARY
  5
D
330
C
100
AcDbDictionary
  0
DICTIONARY
  5
1A
330
C
100
AcDbDictionary
  0
DICTIONARY
  5
17
330
C
100
AcDbDictionary
  3
STANDARD
350
18
  0
DICTIONARY
  5
19
330
C
100
AcDbDictionary
  0
ENDSEC
  0
EOF
